<?xml version="1.0" encoding="UTF-8" standalone="no"?>
<svg
   xmlns:dc="http://purl.org/dc/elements/1.1/"
   xmlns:cc="http://creativecommons.org/ns#"
   xmlns:rdf="http://www.w3.org/1999/02/22-rdf-syntax-ns#"
   xmlns:svg="http://www.w3.org/2000/svg"
   xmlns="http://www.w3.org/2000/svg"
   xmlns:sodipodi="http://sodipodi.sourceforge.net/DTD/sodipodi-0.dtd"
   xmlns:inkscape="http://www.inkscape.org/namespaces/inkscape"
   version="1.1"
   width="152.77043"
   height="48.224499"
   id="svg3971"
   inkscape:version="0.92.3 (2405546, 2018-03-11)"
   sodipodi:docname="logo_text.svg">
  <sodipodi:namedview
     pagecolor="#ffffff"
     bordercolor="#666666"
     borderopacity="1"
     objecttolerance="10"
     gridtolerance="10"
     guidetolerance="10"
     inkscape:pageopacity="0"
     inkscape:pageshadow="2"
     inkscape:window-width="1299"
     inkscape:window-height="713"
     id="namedview42"
     showgrid="false"
     inkscape:zoom="2.1071782"
     inkscape:cx="-7.5525744"
     inkscape:cy="32.378921"
     inkscape:window-x="67"
     inkscape:window-y="27"
     inkscape:window-maximized="1"
     inkscape:current-layer="svg3971"
     fit-margin-top="0"
     fit-margin-left="0"
     fit-margin-right="0"
     fit-margin-bottom="0" />
  <defs
     id="defs3973" />
  <metadata
     id="metadata3976">
    <rdf:rdf>
      <cc:work
         rdf:about="">
        <dc:format>image/svg+xml</dc:format>
        <dc:type
           rdf:resource="http://purl.org/dc/dcmitype/StillImage" />
        <dc:title />
      </cc:work>
    </rdf:rdf>
    <rdf:RDF>
      <cc:Work
         rdf:about="">
        <dc:format>image/svg+xml</dc:format>
        <dc:type
           rdf:resource="http://purl.org/dc/dcmitype/StillImage" />
        <dc:title></dc:title>
      </cc:Work>
    </rdf:RDF>
  </metadata>
  <rect
     width="152.77017"
     height="3.6812088"
     x="0.00012899"
     y="0.00012899"
     id="rect4498-8"
     style="display:inline;fill:#59d549;fill-opacity:1;fill-rule:nonzero;stroke:#808080;stroke-width:0.00025798;stroke-miterlimit:10;stroke-dasharray:none;stroke-dashoffset:0;stroke-opacity:1" />
  <g
     transform="matrix(0.2284101,0,0,0.29137946,-45.4879,-11.383882)"
     id="text4511-2"
     style="font-style:normal;font-variant:normal;font-weight:normal;font-stretch:normal;font-size:146.8301239px;line-height:125%;font-family:'Ume P Gothic';-inkscape-font-specification:'Ume P Gothic';letter-spacing:0px;word-spacing:0px;display:inline;fill:#bd1f4c;fill-opacity:1;stroke:none">
    <path
       d="m 260.67582,115.60029 c -2.2465,-1.05146 -4.49292,-1.8162 -6.73928,-2.29422 -2.19869,-0.5257 -4.42121,-0.78858 -6.66758,-0.78864 -6.59593,6e-5 -11.68623,2.12699 -15.2709,6.3808 -3.53697,4.20612 -5.30543,10.25234 -5.30539,18.13868 v 36.99431 H 201.02608 V 93.733495 h 25.66659 v 13.191765 c 3.2979,-5.25751 7.0738,-9.08121 11.32772,-11.471099 4.30161,-2.437528 9.4397,-3.656332 15.41429,-3.656414 0.86027,8.2e-5 1.79229,0.04788 2.79608,0.143389 1.00366,0.04788 2.46144,0.191267 4.37336,0.430166 l 0.0717,23.228988"
       id="path3798"
       style="font-weight:bold;font-family:Webdings;-inkscape-font-specification:'Webdings Bold';fill:#bd1f4c"
       inkscape:connector-curvature="0" />
    <path
       d="m 297.52674,137.89724 c -5.35323,4e-5 -9.39201,0.90817 -12.11636,2.72439 -2.67662,1.81629 -4.01492,4.49288 -4.01488,8.02977 -4e-5,3.25017 1.07538,5.80727 3.22624,7.6713 2.19859,1.81628 5.23365,2.72441 9.10519,2.72439 4.82738,2e-5 8.89005,-1.72065 12.18805,-5.162 3.29788,-3.4891 4.94685,-7.83856 4.94691,-13.04838 v -2.93947 h -13.33515 m 39.21683,-9.67874 v 45.81272 h -25.88168 v -11.90127 c -3.44139,4.87523 -7.31288,8.43604 -11.61449,10.68246 -4.30171,2.19863 -9.53539,3.29794 -15.70107,3.29795 -8.31658,-10e-6 -15.07974,-2.41371 -20.28952,-7.24114 -5.162,-4.87521 -7.743,-11.18431 -7.74299,-18.92732 -1e-5,-9.41583 3.22624,-16.32238 9.67874,-20.71968 6.50027,-4.39721 16.68087,-6.59583 30.54182,-6.59588 h 15.12751 v -2.00745 c -6e-5,-4.06262 -1.60123,-7.02599 -4.80352,-8.8901 -3.20241,-1.91179 -8.19711,-2.86771 -14.98413,-2.86778 -5.49661,7e-5 -10.6108,0.54972 -15.3426,1.64897 -4.73185,1.09938 -9.12911,2.74835 -13.19177,4.94692 V 95.884327 c 5.49655,-1.338216 11.01701,-2.341936 16.56141,-3.011164 5.54433,-0.716862 11.08869,-1.075334 16.6331,-1.075416 14.4822,8.2e-5 24.92568,2.867855 31.33045,8.603323 6.45241,5.68783 9.67865,14.96029 9.67874,27.81743"
       id="path3800"
       style="font-weight:bold;font-family:Webdings;-inkscape-font-specification:'Webdings Bold';fill:#bd1f4c"
       inkscape:connector-curvature="0" />
    <path
       d="m 414.3169,96.242799 v 19.500881 c -5.49664,-2.29416 -10.80202,-4.01483 -15.91615,-5.162 -5.11426,-1.14705 -9.94168,-1.7206 -14.48227,-1.72067 -4.87526,7e-5 -8.50777,0.62142 -10.89755,1.86406 -2.34205,1.19497 -3.51306,3.05902 -3.51303,5.59216 -3e-5,2.0553 0.8842,3.63257 2.6527,4.73183 1.81622,1.09937 5.04246,1.9119 9.67874,2.43761 l 4.51675,0.64525 c 13.14391,1.67292 21.98621,4.4212 26.52692,8.24486 4.54057,3.82373 6.81089,9.82216 6.81097,17.99529 -8e-5,8.55555 -3.15463,14.98414 -9.46366,19.28579 -6.30917,4.30167 -15.72503,6.45249 -28.24759,6.4525 -5.30542,-10e-6 -10.80199,-0.43017 -16.48971,-1.2905 -5.63998,-0.81254 -11.44722,-2.05524 -17.42174,-3.72811 v -19.50088 c 5.11419,2.48543 10.34787,4.34948 15.70107,5.59217 5.40095,1.24271 10.87362,1.86407 16.41802,1.86405 5.01856,2e-5 8.79446,-0.69303 11.32771,-2.07914 2.53315,-1.38607 3.79975,-3.44131 3.79981,-6.16571 -6e-5,-2.2942 -0.88429,-3.99097 -2.6527,-5.09031 -1.72071,-1.14708 -5.18594,-2.03131 -10.39568,-2.65269 l -4.51675,-0.57355 c -11.42333,-1.43386 -19.4292,-4.08655 -24.01762,-7.95808 -4.58845,-3.87146 -6.88267,-9.75039 -6.88267,-17.63682 0,-8.50767 2.91557,-14.81677 8.74672,-18.927325 5.83112,-4.110399 14.76902,-6.165636 26.81371,-6.165718 4.73178,8.2e-5 9.70258,0.358554 14.91243,1.075416 5.20973,0.717024 10.87358,1.840235 16.99157,3.369636"
       id="path3802"
       style="font-weight:bold;font-family:Webdings;-inkscape-font-specification:'Webdings Bold';fill:#bd1f4c"
       inkscape:connector-curvature="0" />
    <path
       d="m 453.82052,162.41673 v 42.1563 H 428.15393 V 93.733495 h 25.66659 v 11.757885 c 3.53689,-4.68396 7.45618,-8.125292 11.75789,-10.323997 4.30161,-2.246343 9.24851,-3.369554 14.84074,-3.369636 9.89375,8.2e-5 18.0191,3.94327 24.37609,11.829573 6.35681,7.83865 9.53526,17.94755 9.53536,30.32673 -10e-5,12.37926 -3.17855,22.51206 -9.53536,30.39843 -6.35699,7.83859 -14.48234,11.75787 -24.37609,11.75788 -5.59223,-10e-6 -10.53913,-1.09932 -14.84074,-3.29795 -4.30171,-2.24642 -8.221,-5.71164 -11.75789,-10.39568 m 17.06327,-51.97844 c -5.49662,6e-5 -9.72658,2.0314 -12.68991,6.09402 -2.91561,4.01494 -4.37339,9.82218 -4.37336,17.42174 -3e-5,7.59964 1.45775,13.43078 4.37336,17.49343 2.96333,4.01491 7.19329,6.02235 12.68991,6.02233 5.49651,2e-5 9.67868,-2.00742 12.54652,-6.02233 2.9155,-4.01485 4.37329,-9.84599 4.37336,-17.49343 -7e-5,-7.64735 -1.45786,-13.47849 -4.37336,-17.49343 -2.86784,-4.01483 -7.05001,-6.02227 -12.54652,-6.02233"
       id="path3804"
       style="font-weight:bold;font-family:Webdings;-inkscape-font-specification:'Webdings Bold';fill:#bd1f4c"
       inkscape:connector-curvature="0" />
    <path
       d="m 521.35664,93.733495 h 25.6666 v 80.297725 h -25.6666 V 93.733495 m 0,-31.258756 h 25.6666 v 20.934763 h -25.6666 V 62.474739"
       id="path3806"
       style="font-weight:bold;font-family:Webdings;-inkscape-font-specification:'Webdings Bold';fill:#bd1f4c"
       inkscape:connector-curvature="0" />
  </g>
  <g
     transform="matrix(0.2284101,0,0,0.29137946,-45.4879,-11.383882)"
     id="text3780"
     style="font-style:normal;font-variant:normal;font-weight:normal;font-stretch:normal;font-size:146.8301239px;line-height:125%;font-family:'Ume P Gothic';-inkscape-font-specification:'Ume P Gothic';letter-spacing:0px;word-spacing:0px;display:inline;fill:#bd1f4c;fill-opacity:1;stroke:none">
    <path
       d="m 636.83844,125.13564 v 48.89558 h -25.80998 v -7.95808 -29.32301 c -7e-5,-7.026 -0.16736,-11.85342 -0.50186,-14.48226 -0.28685,-2.62874 -0.81261,-4.56449 -1.57728,-5.80725 -1.00379,-1.67281 -2.36598,-2.96331 -4.08658,-3.8715 -1.72073,-0.95586 -3.68037,-1.43382 -5.87894,-1.43389 -5.35323,7e-5 -9.5593,2.0792 -12.61821,6.23742 -3.05901,4.11053 -4.58848,9.82218 -4.58845,17.13496 v 39.50361 H 556.11055 V 62.474739 h 25.66659 v 43.016641 c 3.87146,-4.68396 7.98193,-8.125292 12.33144,-10.323997 4.34941,-2.246343 9.15293,-3.369554 14.41057,-3.369636 9.27241,8.2e-5 16.29845,2.843957 21.07816,8.531633 4.82733,5.68782 7.24104,13.95657 7.24113,24.80626"
       id="path3789"
       style="font-weight:bold;font-family:Webdings;-inkscape-font-specification:'Webdings Bold';fill:#0290d4"
       inkscape:connector-curvature="0" />
    <path
       d="m 685.30385,137.89724 c -5.35322,4e-5 -9.392,0.90817 -12.11635,2.72439 -2.67663,1.81629 -4.01492,4.49288 -4.01489,8.02977 -3e-5,3.25017 1.07538,5.80727 3.22625,7.6713 2.19859,1.81628 5.23365,2.72441 9.10519,2.72439 4.82737,2e-5 8.89005,-1.72065 12.18804,-5.162 3.29789,-3.4891 4.94686,-7.83856 4.94692,-13.04838 v -2.93947 h -13.33516 m 39.21683,-9.67874 v 45.81272 h -25.88167 v -11.90127 c -3.44139,4.87523 -7.31289,8.43604 -11.61449,10.68246 -4.30171,2.19863 -9.5354,3.29794 -15.70108,3.29795 -8.31657,-10e-6 -15.07974,-2.41371 -20.28951,-7.24114 -5.16201,-4.87521 -7.743,-11.18431 -7.743,-18.92732 0,-9.41583 3.22624,-16.32238 9.67875,-20.71968 6.50027,-4.39721 16.68086,-6.59583 30.54181,-6.59588 h 15.12752 v -2.00745 c -6e-5,-4.06262 -1.60124,-7.02599 -4.80353,-8.8901 -3.2024,-1.91179 -8.1971,-2.86771 -14.98413,-2.86778 -5.4966,7e-5 -10.6108,0.54972 -15.3426,1.64897 -4.73185,1.09938 -9.1291,2.74835 -13.19177,4.94692 V 95.884327 c 5.49656,-1.338216 11.01702,-2.341936 16.56141,-3.011164 5.54433,-0.716862 11.08869,-1.075334 16.6331,-1.075416 14.48221,8.2e-5 24.92568,2.867855 31.33045,8.603323 6.45241,5.68783 9.67866,14.96029 9.67874,27.81743"
       id="path3791"
       style="font-weight:bold;font-family:Webdings;-inkscape-font-specification:'Webdings Bold';fill:#0290d4"
       inkscape:connector-curvature="0" />
    <path
       d="m 767.39394,70.934677 v 22.798818 h 26.45524 v 18.353765 h -26.45524 v 34.05484 c -4e-5,3.72813 0.7408,6.26133 2.22253,7.59961 1.48164,1.29051 4.42111,1.93576 8.81841,1.93574 h 13.19177 v 18.35377 h -22.01018 c -10.13284,0 -17.32617,-2.10303 -21.58001,-6.30911 -4.20609,-4.25385 -6.30912,-11.44718 -6.30911,-21.58001 v -34.05484 h -12.7616 V 93.733495 h 12.7616 V 70.934677 h 25.66659"
       id="path3793"
       style="font-weight:bold;font-family:Webdings;-inkscape-font-specification:'Webdings Bold';fill:#0290d4"
       inkscape:connector-curvature="0" />
    <path
       d="m 859.73632,96.242799 v 19.500881 c -5.49664,-2.29416 -10.80202,-4.01483 -15.91616,-5.162 -5.11425,-1.14705 -9.94167,-1.7206 -14.48226,-1.72067 -4.87526,7e-5 -8.50778,0.62142 -10.89755,1.86406 -2.34205,1.19497 -3.51306,3.05902 -3.51303,5.59216 -3e-5,2.0553 0.8842,3.63257 2.65269,4.73183 1.81623,1.09937 5.04247,1.9119 9.67875,2.43761 l 4.51675,0.64525 c 13.14391,1.67292 21.98621,4.4212 26.52692,8.24486 4.54057,3.82373 6.81089,9.82216 6.81097,17.99529 -8e-5,8.55555 -3.15463,14.98414 -9.46366,19.28579 -6.30917,4.30167 -15.72503,6.45249 -28.24759,6.4525 -5.30543,-10e-6 -10.80199,-0.43017 -16.48971,-1.2905 -5.63998,-0.81254 -11.44722,-2.05524 -17.42174,-3.72811 v -19.50088 c 5.11418,2.48543 10.34787,4.34948 15.70107,5.59217 5.40095,1.24271 10.87362,1.86407 16.41802,1.86405 5.01856,2e-5 8.79446,-0.69303 11.32771,-2.07914 2.53315,-1.38607 3.79975,-3.44131 3.79981,-6.16571 -6e-5,-2.2942 -0.88429,-3.99097 -2.6527,-5.09031 -1.72071,-1.14708 -5.18594,-2.03131 -10.39569,-2.65269 l -4.51674,-0.57355 c -11.42334,-1.43386 -19.4292,-4.08655 -24.01762,-7.95808 -4.58846,-3.87146 -6.88267,-9.75039 -6.88267,-17.63682 0,-8.50767 2.91556,-14.81677 8.74672,-18.927325 5.83112,-4.110399 14.76901,-6.165636 26.8137,-6.165718 4.73179,8.2e-5 9.70259,0.358554 14.91244,1.075416 5.20973,0.717024 10.87358,1.840235 16.99157,3.369636"
       id="path3795"
       style="font-weight:bold;font-family:Webdings;-inkscape-font-specification:'Webdings Bold';fill:#0290d4"
       inkscape:connector-curvature="0" />
  </g>
</svg>
